<svg xmlns="http://www.w3.org/2000/svg" xmlns:xlink="http://www.w3.org/1999/xlink" width="500" zoomAndPan="magnify" viewBox="0 0 375 374.999991" height="500" preserveAspectRatio="xMidYMid meet" version="1.0"><defs><g/><clipPath id="f50e458031"><path d="M 187.5 0 C 83.945312 0 0 83.945312 0 187.5 C 0 291.054688 83.945312 375 187.5 375 C 291.054688 375 375 291.054688 375 187.5 C 375 83.945312 291.054688 0 187.5 0 " clip-rule="nonzero"/></clipPath><clipPath id="56c1be279b"><path d="M 83.53125 102.585938 L 291.28125 102.585938 L 291.28125 272.082031 L 83.53125 272.082031 Z M 83.53125 102.585938 " clip-rule="nonzero"/></clipPath><clipPath id="eae3e3b051"><path d="M 100.765625 102.585938 L 274.046875 102.585938 C 278.617188 102.585938 283.003906 104.398438 286.234375 107.628906 C 289.464844 110.855469 291.28125 115.234375 291.28125 119.800781 L 291.28125 254.867188 C 291.28125 259.433594 289.464844 263.8125 286.234375 267.039062 C 283.003906 270.269531 278.617188 272.082031 274.046875 272.082031 L 100.765625 272.082031 C 96.195312 272.082031 91.8125 270.269531 88.578125 267.039062 C 85.347656 263.8125 83.53125 259.433594 83.53125 254.867188 L 83.53125 119.800781 C 83.53125 115.234375 85.347656 110.855469 88.578125 107.628906 C 91.8125 104.398438 96.195312 102.585938 100.765625 102.585938 " clip-rule="nonzero"/></clipPath><clipPath id="408917b235"><path d="M 95.398438 113.40625 L 104.398438 113.40625 L 104.398438 122.40625 L 95.398438 122.40625 Z M 95.398438 113.40625 " clip-rule="nonzero"/></clipPath><clipPath id="b352b1f623"><path d="M 99.898438 113.40625 C 97.414062 113.40625 95.398438 115.421875 95.398438 117.90625 C 95.398438 120.390625 97.414062 122.40625 99.898438 122.40625 C 102.382812 122.40625 104.398438 120.390625 104.398438 117.90625 C 104.398438 115.421875 102.382812 113.40625 99.898438 113.40625 " clip-rule="nonzero"/></clipPath><clipPath id="e10baf6639"><path d="M 107.890625 113.40625 L 116.890625 113.40625 L 116.890625 122.40625 L 107.890625 122.40625 Z M 107.890625 113.40625 " clip-rule="nonzero"/></clipPath><clipPath id="cb31c2214b"><path d="M 112.390625 113.40625 C 109.90625 113.40625 107.890625 115.421875 107.890625 117.90625 C 107.890625 120.390625 109.90625 122.40625 112.390625 122.40625 C 114.875 122.40625 116.890625 120.390625 116.890625 117.90625 C 116.890625 115.421875 114.875 113.40625 112.390625 113.40625 " clip-rule="nonzero"/></clipPath><clipPath id="167ab531f4"><path d="M 120.417969 113.40625 L 129.417969 113.40625 L 129.417969 122.40625 L 120.417969 122.40625 Z M 120.417969 113.40625 " clip-rule="nonzero"/></clipPath><clipPath id="104f77888f"><path d="M 124.917969 113.40625 C 122.433594 113.40625 120.417969 115.421875 120.417969 117.90625 C 120.417969 120.390625 122.433594 122.40625 124.917969 122.40625 C 127.402344 122.40625 129.417969 120.390625 129.417969 117.90625 C 129.417969 115.421875 127.402344 113.40625 124.917969 113.40625 " clip-rule="nonzero"/></clipPath></defs><rect x="-37.5" width="450" fill="#ffffff" y="-37.499999" height="449.999989" fill-opacity="1"/><rect x="-37.5" width="450" fill="#ffffff" y="-37.499999" height="449.999989" fill-opacity="1"/><g clip-path="url(#f50e458031)"><rect x="-37.5" width="450" fill="#000000" y="-37.499999" height="449.999989" fill-opacity="1"/></g><g clip-path="url(#56c1be279b)"><g clip-path="url(#eae3e3b051)"><path stroke-linecap="butt" transform="matrix(0.749366, 0, 0, 0.748551, 83.532069, 102.585857)" fill="none" stroke-linejoin="miter" d="M 22.997519 0.000107189 L 254.234691 0.000107189 C 260.333597 0.000107189 266.187505 2.421452 270.498441 6.737082 C 274.809378 11.047494 277.233302 16.897338 277.233302 22.997666 L 277.233302 203.434836 C 277.233302 209.535164 274.809378 215.385009 270.498441 219.69542 C 266.187505 224.01105 260.333597 226.432395 254.234691 226.432395 L 22.997519 226.432395 C 16.898613 226.432395 11.049918 224.01105 6.733768 219.69542 C 2.422832 215.385009 -0.00109241 209.535164 -0.00109241 203.434836 L -0.00109241 22.997666 C -0.00109241 16.897338 2.422832 11.047494 6.733768 6.737082 C 11.049918 2.421452 16.898613 0.000107189 22.997519 0.000107189 " stroke="#00f2d5" stroke-width="6" stroke-opacity="1" stroke-miterlimit="4"/></g></g><path stroke-linecap="butt" transform="matrix(0.749298, 0.00621098, -0.00621659, 0.749974, 83.541385, 129.627764)" fill="none" stroke-linejoin="miter" d="M -0.00106859 1.501583 L 277.258489 1.502387 " stroke="#00f2d5" stroke-width="3" stroke-opacity="1" stroke-miterlimit="4"/><g clip-path="url(#408917b235)"><g clip-path="url(#b352b1f623)"><path stroke-linecap="butt" transform="matrix(0.769025, 0, 0, 0.769025, 95.398717, 113.406672)" fill="none" stroke-linejoin="miter" d="M 5.8512 -0.000548425 C 2.620649 -0.000548425 -0.000362973 2.620464 -0.000362973 5.851014 C -0.000362973 9.081564 2.620649 11.702577 5.8512 11.702577 C 9.08175 11.702577 11.702762 9.081564 11.702762 5.851014 C 11.702762 2.620464 9.08175 -0.000548425 5.8512 -0.000548425 " stroke="#00f2d5" stroke-width="6" stroke-opacity="1" stroke-miterlimit="4"/></g></g><g clip-path="url(#e10baf6639)"><g clip-path="url(#cb31c2214b)"><path stroke-linecap="butt" transform="matrix(0.769025, 0, 0, 0.769025, 107.890661, 113.406672)" fill="none" stroke-linejoin="miter" d="M 5.851516 -0.000548425 C 2.620966 -0.000548425 -0.0000463121 2.620464 -0.0000463121 5.851014 C -0.0000463121 9.081564 2.620966 11.702577 5.851516 11.702577 C 9.082067 11.702577 11.703079 9.081564 11.703079 5.851014 C 11.703079 2.620464 9.082067 -0.000548425 5.851516 -0.000548425 " stroke="#00f2d5" stroke-width="6" stroke-opacity="1" stroke-miterlimit="4"/></g></g><g clip-path="url(#167ab531f4)"><g clip-path="url(#104f77888f)"><path stroke-linecap="butt" transform="matrix(0.769025, 0, 0, 0.769025, 120.418737, 113.406672)" fill="none" stroke-linejoin="miter" d="M 5.850564 -0.000548425 C 2.620014 -0.000548425 -0.000998462 2.620464 -0.000998462 5.851014 C -0.000998462 9.081564 2.620014 11.702577 5.850564 11.702577 C 9.081114 11.702577 11.702127 9.081564 11.702127 5.851014 C 11.702127 2.620464 9.081114 -0.000548425 5.850564 -0.000548425 " stroke="#00f2d5" stroke-width="6" stroke-opacity="1" stroke-miterlimit="4"/></g></g><g fill="#00f2d5" fill-opacity="1"><g transform="translate(136.73749, 216.365201)"><g><path d="M 25.09375 -2.671875 L 21.53125 0.96875 L 6.03125 -14.53125 L 21.53125 -30.03125 L 25.09375 -26.375 L 13.265625 -14.53125 Z M 25.09375 -2.671875 "/></g></g></g><g fill="#00f2d5" fill-opacity="1"><g transform="translate(170.578926, 216.365201)"><g><path d="M 23.546875 -41.359375 L 28.21875 -39.046875 L 5.03125 7.625 L 0.359375 5.328125 Z M 23.546875 -41.359375 "/></g></g></g><g fill="#00f2d5" fill-opacity="1"><g transform="translate(204.420362, 216.365201)"><g><path d="M 14.953125 -14.53125 L 3.09375 -26.375 L 6.6875 -30.03125 L 22.1875 -14.53125 L 6.6875 0.96875 L 3.09375 -2.671875 Z M 14.953125 -14.53125 "/></g></g></g></svg>