<svg xmlns="http://www.w3.org/2000/svg" xmlns:xlink="http://www.w3.org/1999/xlink" width="500" zoomAndPan="magnify" viewBox="0 0 375 374.999991" height="500" preserveAspectRatio="xMidYMid meet" version="1.0"><defs><g/><clipPath id="c0f6c48e26"><path d="M 83.53125 102.585938 L 291.28125 102.585938 L 291.28125 272.082031 L 83.53125 272.082031 Z M 83.53125 102.585938 " clip-rule="nonzero"/></clipPath><clipPath id="4d451088d1"><path d="M 100.765625 102.585938 L 274.046875 102.585938 C 278.617188 102.585938 283.003906 104.398438 286.234375 107.628906 C 289.464844 110.855469 291.28125 115.234375 291.28125 119.800781 L 291.28125 254.867188 C 291.28125 259.433594 289.464844 263.8125 286.234375 267.039062 C 283.003906 270.269531 278.617188 272.082031 274.046875 272.082031 L 100.765625 272.082031 C 96.195312 272.082031 91.8125 270.269531 88.578125 267.039062 C 85.347656 263.8125 83.53125 259.433594 83.53125 254.867188 L 83.53125 119.800781 C 83.53125 115.234375 85.347656 110.855469 88.578125 107.628906 C 91.8125 104.398438 96.195312 102.585938 100.765625 102.585938 " clip-rule="nonzero"/></clipPath><clipPath id="83b23fab45"><path d="M 95.398438 113.40625 L 104.398438 113.40625 L 104.398438 122.40625 L 95.398438 122.40625 Z M 95.398438 113.40625 " clip-rule="nonzero"/></clipPath><clipPath id="100c522465"><path d="M 99.898438 113.40625 C 97.414062 113.40625 95.398438 115.421875 95.398438 117.90625 C 95.398438 120.390625 97.414062 122.40625 99.898438 122.40625 C 102.382812 122.40625 104.398438 120.390625 104.398438 117.90625 C 104.398438 115.421875 102.382812 113.40625 99.898438 113.40625 " clip-rule="nonzero"/></clipPath><clipPath id="bd684f11ca"><path d="M 107.890625 113.40625 L 116.890625 113.40625 L 116.890625 122.40625 L 107.890625 122.40625 Z M 107.890625 113.40625 " clip-rule="nonzero"/></clipPath><clipPath id="e64451c64c"><path d="M 112.390625 113.40625 C 109.90625 113.40625 107.890625 115.421875 107.890625 117.90625 C 107.890625 120.390625 109.90625 122.40625 112.390625 122.40625 C 114.875 122.40625 116.890625 120.390625 116.890625 117.90625 C 116.890625 115.421875 114.875 113.40625 112.390625 113.40625 " clip-rule="nonzero"/></clipPath><clipPath id="7e1f6c1fe8"><path d="M 120.417969 113.40625 L 129.417969 113.40625 L 129.417969 122.40625 L 120.417969 122.40625 Z M 120.417969 113.40625 " clip-rule="nonzero"/></clipPath><clipPath id="a858ca1caa"><path d="M 124.917969 113.40625 C 122.433594 113.40625 120.417969 115.421875 120.417969 117.90625 C 120.417969 120.390625 122.433594 122.40625 124.917969 122.40625 C 127.402344 122.40625 129.417969 120.390625 129.417969 117.90625 C 129.417969 115.421875 127.402344 113.40625 124.917969 113.40625 " clip-rule="nonzero"/></clipPath></defs><rect x="-37.5" width="450" fill="#ffffff" y="-37.499999" height="449.999989" fill-opacity="1"/><rect x="-37.5" width="450" fill="#ffffff" y="-37.499999" height="449.999989" fill-opacity="1"/><rect x="-37.5" width="450" fill="#ffffff" y="-37.499999" height="449.999989" fill-opacity="1"/><rect x="-37.5" width="450" fill="#000000" y="-37.499999" height="449.999989" fill-opacity="1"/><g clip-path="url(#c0f6c48e26)"><g clip-path="url(#4d451088d1)"><path stroke-linecap="butt" transform="matrix(0.749366, 0, 0, 0.748551, 83.532069, 102.585886)" fill="none" stroke-linejoin="miter" d="M 22.997519 0.0000687147 L 254.234691 0.0000687147 C 260.333597 0.0000687147 266.187505 2.421414 270.498441 6.737044 C 274.809378 11.047455 277.233302 16.8973 277.233302 22.997628 L 277.233302 203.434798 C 277.233302 209.535126 274.809378 215.38497 270.498441 219.695382 C 266.187505 224.011012 260.333597 226.432357 254.234691 226.432357 L 22.997519 226.432357 C 16.898613 226.432357 11.049918 224.011012 6.733768 219.695382 C 2.422832 215.38497 -0.00109241 209.535126 -0.00109241 203.434798 L -0.00109241 22.997628 C -0.00109241 16.8973 2.422832 11.047455 6.733768 6.737044 C 11.049918 2.421414 16.898613 0.0000687147 22.997519 0.0000687147 " stroke="#00f2d5" stroke-width="6" stroke-opacity="1" stroke-miterlimit="4"/></g></g><path stroke-linecap="butt" transform="matrix(0.749298, 0.00621098, -0.00621659, 0.749974, 83.541385, 129.627793)" fill="none" stroke-linejoin="miter" d="M -0.00106891 1.501545 L 277.258489 1.502348 " stroke="#00f2d5" stroke-width="3" stroke-opacity="1" stroke-miterlimit="4"/><g clip-path="url(#83b23fab45)"><g clip-path="url(#100c522465)"><path stroke-linecap="butt" transform="matrix(0.769025, 0, 0, 0.769025, 95.398717, 113.406708)" fill="none" stroke-linejoin="miter" d="M 5.8512 -0.000595238 C 2.620649 -0.000595238 -0.000362973 2.620417 -0.000362973 5.850967 C -0.000362973 9.081518 2.620649 11.70253 5.8512 11.70253 C 9.08175 11.70253 11.702762 9.081518 11.702762 5.850967 C 11.702762 2.620417 9.08175 -0.000595238 5.8512 -0.000595238 " stroke="#00f2d5" stroke-width="6" stroke-opacity="1" stroke-miterlimit="4"/></g></g><g clip-path="url(#bd684f11ca)"><g clip-path="url(#e64451c64c)"><path stroke-linecap="butt" transform="matrix(0.769025, 0, 0, 0.769025, 107.890661, 113.406708)" fill="none" stroke-linejoin="miter" d="M 5.851516 -0.000595238 C 2.620966 -0.000595238 -0.0000463121 2.620417 -0.0000463121 5.850967 C -0.0000463121 9.081518 2.620966 11.70253 5.851516 11.70253 C 9.082067 11.70253 11.703079 9.081518 11.703079 5.850967 C 11.703079 2.620417 9.082067 -0.000595238 5.851516 -0.000595238 " stroke="#00f2d5" stroke-width="6" stroke-opacity="1" stroke-miterlimit="4"/></g></g><g clip-path="url(#7e1f6c1fe8)"><g clip-path="url(#a858ca1caa)"><path stroke-linecap="butt" transform="matrix(0.769025, 0, 0, 0.769025, 120.418737, 113.406708)" fill="none" stroke-linejoin="miter" d="M 5.850564 -0.000595238 C 2.620014 -0.000595238 -0.000998462 2.620417 -0.000998462 5.850967 C -0.000998462 9.081518 2.620014 11.70253 5.850564 11.70253 C 9.081114 11.70253 11.702127 9.081518 11.702127 5.850967 C 11.702127 2.620417 9.081114 -0.000595238 5.850564 -0.000595238 " stroke="#00f2d5" stroke-width="6" stroke-opacity="1" stroke-miterlimit="4"/></g></g><g fill="#00f2d5" fill-opacity="1"><g transform="translate(136.73749, 216.365244)"><g><path d="M 25.09375 -2.671875 L 21.53125 0.96875 L 6.03125 -14.53125 L 21.53125 -30.03125 L 25.09375 -26.375 L 13.265625 -14.53125 Z M 25.09375 -2.671875 "/></g></g></g><g fill="#00f2d5" fill-opacity="1"><g transform="translate(170.578926, 216.365244)"><g><path d="M 23.546875 -41.359375 L 28.21875 -39.046875 L 5.03125 7.625 L 0.359375 5.328125 Z M 23.546875 -41.359375 "/></g></g></g><g fill="#00f2d5" fill-opacity="1"><g transform="translate(204.420362, 216.365244)"><g><path d="M 14.953125 -14.53125 L 3.09375 -26.375 L 6.6875 -30.03125 L 22.1875 -14.53125 L 6.6875 0.96875 L 3.09375 -2.671875 Z M 14.953125 -14.53125 "/></g></g></g></svg>