<svg width="172" height="28" viewBox="0 0 172 28" fill="none" xmlns="http://www.w3.org/2000/svg">
<path d="M23.2765 21.3687C23.8122 21.3687 24.2829 21.3606 24.6887 21.3443C25.1107 21.3119 25.4597 21.2632 25.7356 21.1983V17.4243C25.5733 17.3432 25.3055 17.2783 24.9322 17.2296C24.5751 17.1646 24.1368 17.1322 23.6174 17.1322C23.2765 17.1322 22.9113 17.1565 22.5217 17.2052C22.1484 17.2539 21.7994 17.3594 21.4748 17.5217C21.1664 17.6678 20.9067 17.8788 20.6956 18.1548C20.4846 18.4145 20.3791 18.7635 20.3791 19.2017C20.3791 20.0133 20.6388 20.5814 21.1583 20.9061C21.6777 21.2145 22.3838 21.3687 23.2765 21.3687ZM23.0817 10.0226C23.9907 10.0226 24.7536 10.1443 25.3704 10.3878C26.0035 10.6151 26.5067 10.9478 26.88 11.3861C27.2696 11.8081 27.5455 12.3194 27.7078 12.92C27.8701 13.5043 27.9513 14.1536 27.9513 14.8678V22.7809C27.7565 22.8133 27.4806 22.862 27.1235 22.927C26.7826 22.9757 26.393 23.0243 25.9548 23.073C25.5165 23.1217 25.0377 23.1623 24.5183 23.1948C24.0151 23.2435 23.5119 23.2678 23.0087 23.2678C22.2945 23.2678 21.6371 23.1948 21.0365 23.0487C20.4359 22.9026 19.9165 22.6754 19.4783 22.367C19.04 22.0423 18.6991 21.6203 18.4556 21.1009C18.2122 20.5814 18.0904 19.9565 18.0904 19.2261C18.0904 18.5281 18.2284 17.9275 18.5043 17.4243C18.7965 16.9212 19.1861 16.5154 19.673 16.207C20.16 15.8986 20.7281 15.6713 21.3774 15.5252C22.0267 15.3791 22.7084 15.3061 23.4226 15.3061C23.6498 15.3061 23.8852 15.3223 24.1287 15.3548C24.3722 15.371 24.5994 15.4035 24.8104 15.4522C25.0377 15.4846 25.2325 15.5171 25.3948 15.5496C25.5571 15.582 25.6707 15.6064 25.7356 15.6226V14.9896C25.7356 14.6162 25.6951 14.251 25.6139 13.8939C25.5327 13.5206 25.3867 13.1959 25.1756 12.92C24.9646 12.6278 24.6725 12.4006 24.2991 12.2383C23.942 12.0597 23.4713 11.9704 22.887 11.9704C22.1403 11.9704 21.4829 12.0272 20.9148 12.1409C20.3629 12.2383 19.949 12.3438 19.673 12.4574L19.4052 10.5826C19.6974 10.4528 20.1843 10.331 20.8661 10.2174C21.5478 10.0875 22.2864 10.0226 23.0817 10.0226ZM36.7277 23.2435C35.3318 23.211 34.3417 22.9107 33.7573 22.3426C33.173 21.7745 32.8808 20.8899 32.8808 19.6887V4.49565L35.1451 4.10609V19.3235C35.1451 19.6968 35.1776 20.0052 35.2425 20.2487C35.3074 20.4922 35.413 20.687 35.559 20.833C35.7051 20.9791 35.8999 21.0928 36.1434 21.1739C36.3869 21.2388 36.6872 21.2957 37.0443 21.3443L36.7277 23.2435ZM50.6897 10.3391C50.0566 12.709 49.31 14.9814 48.4497 17.1565C47.6056 19.3316 46.7859 21.2794 45.9906 23H43.9453C43.15 21.2794 42.3222 19.3316 41.4619 17.1565C40.6178 14.9814 39.8793 12.709 39.2462 10.3391H41.681C41.8758 11.1345 42.103 11.9867 42.3627 12.8957C42.6387 13.7884 42.9227 14.6812 43.2149 15.5739C43.5233 16.4504 43.8317 17.3026 44.1401 18.1304C44.4485 18.9583 44.7407 19.6968 45.0166 20.3461C45.2926 19.6968 45.5848 18.9583 45.8932 18.1304C46.2016 17.3026 46.5019 16.4504 46.794 15.5739C47.1024 14.6812 47.3865 13.7884 47.6462 12.8957C47.9222 11.9867 48.1575 11.1345 48.3523 10.3391H50.6897ZM58.5285 21.3687C59.0642 21.3687 59.5349 21.3606 59.9407 21.3443C60.3628 21.3119 60.7117 21.2632 60.9877 21.1983V17.4243C60.8254 17.3432 60.5575 17.2783 60.1842 17.2296C59.8271 17.1646 59.3888 17.1322 58.8694 17.1322C58.5285 17.1322 58.1633 17.1565 57.7738 17.2052C57.4004 17.2539 57.0514 17.3594 56.7268 17.5217C56.4184 17.6678 56.1587 17.8788 55.9477 18.1548C55.7367 18.4145 55.6312 18.7635 55.6312 19.2017C55.6312 20.0133 55.8909 20.5814 56.4103 20.9061C56.9297 21.2145 57.6358 21.3687 58.5285 21.3687ZM58.3338 10.0226C59.2428 10.0226 60.0057 10.1443 60.6225 10.3878C61.2555 10.6151 61.7587 10.9478 62.132 11.3861C62.5216 11.8081 62.7975 12.3194 62.9599 12.92C63.1222 13.5043 63.2033 14.1536 63.2033 14.8678V22.7809C63.0085 22.8133 62.7326 22.862 62.3755 22.927C62.0346 22.9757 61.6451 23.0243 61.2068 23.073C60.7685 23.1217 60.2897 23.1623 59.7703 23.1948C59.2671 23.2435 58.7639 23.2678 58.2607 23.2678C57.5465 23.2678 56.8891 23.1948 56.2885 23.0487C55.688 22.9026 55.1685 22.6754 54.7303 22.367C54.292 22.0423 53.9512 21.6203 53.7077 21.1009C53.4642 20.5814 53.3425 19.9565 53.3425 19.2261C53.3425 18.5281 53.4804 17.9275 53.7564 17.4243C54.0485 16.9212 54.4381 16.5154 54.9251 16.207C55.412 15.8986 55.9801 15.6713 56.6294 15.5252C57.2787 15.3791 57.9604 15.3061 58.6746 15.3061C58.9019 15.3061 59.1372 15.3223 59.3807 15.3548C59.6242 15.371 59.8514 15.4035 60.0625 15.4522C60.2897 15.4846 60.4845 15.5171 60.6468 15.5496C60.8091 15.582 60.9228 15.6064 60.9877 15.6226V14.9896C60.9877 14.6162 60.9471 14.251 60.8659 13.8939C60.7848 13.5206 60.6387 13.1959 60.4277 12.92C60.2167 12.6278 59.9245 12.4006 59.5512 12.2383C59.1941 12.0597 58.7233 11.9704 58.139 11.9704C57.3923 11.9704 56.7349 12.0272 56.1668 12.1409C55.6149 12.2383 55.201 12.3438 54.9251 12.4574L54.6572 10.5826C54.9494 10.4528 55.4364 10.331 56.1181 10.2174C56.7999 10.0875 57.5384 10.0226 58.3338 10.0226ZM72.8563 10.0713C73.0511 10.0713 73.2702 10.0875 73.5137 10.12C73.7734 10.1362 74.025 10.1687 74.2685 10.2174C74.5119 10.2499 74.7311 10.2904 74.9259 10.3391C75.1369 10.3716 75.2911 10.4041 75.3885 10.4365L74.9989 12.4087C74.8204 12.3438 74.5201 12.2707 74.098 12.1896C73.6922 12.0922 73.1647 12.0435 72.5154 12.0435C72.0934 12.0435 71.6714 12.0922 71.2493 12.1896C70.8435 12.2707 70.5757 12.3275 70.4459 12.36V23H68.1815V10.8748C68.7172 10.68 69.3827 10.5014 70.178 10.3391C70.9734 10.1606 71.8661 10.0713 72.8563 10.0713ZM89.9665 16.6696C89.9665 17.6759 89.8205 18.5849 89.5283 19.3965C89.2361 20.2081 88.8222 20.9061 88.2865 21.4904C87.7671 22.0748 87.1422 22.5293 86.4118 22.8539C85.6813 23.1623 84.886 23.3165 84.0257 23.3165C83.1654 23.3165 82.37 23.1623 81.6396 22.8539C80.9091 22.5293 80.2761 22.0748 79.7405 21.4904C79.221 20.9061 78.8152 20.2081 78.5231 19.3965C78.2309 18.5849 78.0848 17.6759 78.0848 16.6696C78.0848 15.6794 78.2309 14.7786 78.5231 13.967C78.8152 13.1391 79.221 12.433 79.7405 11.8487C80.2761 11.2643 80.9091 10.818 81.6396 10.5096C82.37 10.1849 83.1654 10.0226 84.0257 10.0226C84.886 10.0226 85.6813 10.1849 86.4118 10.5096C87.1422 10.818 87.7671 11.2643 88.2865 11.8487C88.8222 12.433 89.2361 13.1391 89.5283 13.967C89.8205 14.7786 89.9665 15.6794 89.9665 16.6696ZM87.6048 16.6696C87.6048 15.2412 87.2802 14.113 86.6309 13.2852C85.9978 12.4412 85.1294 12.0191 84.0257 12.0191C82.9219 12.0191 82.0454 12.4412 81.3961 13.2852C80.7631 14.113 80.4465 15.2412 80.4465 16.6696C80.4465 18.098 80.7631 19.2342 81.3961 20.0783C82.0454 20.9061 82.9219 21.32 84.0257 21.32C85.1294 21.32 85.9978 20.9061 86.6309 20.0783C87.2802 19.2342 87.6048 18.098 87.6048 16.6696ZM99.0445 10.0713C99.2393 10.0713 99.4584 10.0875 99.7019 10.12C99.9616 10.1362 100.213 10.1687 100.457 10.2174C100.7 10.2499 100.919 10.2904 101.114 10.3391C101.325 10.3716 101.479 10.4041 101.577 10.4365L101.187 12.4087C101.009 12.3438 100.708 12.2707 100.286 12.1896C99.8804 12.0922 99.3529 12.0435 98.7036 12.0435C98.2816 12.0435 97.8595 12.0922 97.4375 12.1896C97.0317 12.2707 96.7639 12.3275 96.634 12.36V23H94.3697V10.8748C94.9053 10.68 95.5708 10.5014 96.3662 10.3391C97.1616 10.1606 98.0543 10.0713 99.0445 10.0713ZM113.16 13.0174C112.884 12.7901 112.486 12.571 111.967 12.36C111.447 12.149 110.879 12.0435 110.263 12.0435C109.613 12.0435 109.053 12.1652 108.583 12.4087C108.128 12.6359 107.755 12.9606 107.463 13.3826C107.17 13.7884 106.959 14.2754 106.829 14.8435C106.7 15.4116 106.635 16.0203 106.635 16.6696C106.635 18.1467 107 19.291 107.73 20.1026C108.461 20.898 109.435 21.2957 110.652 21.2957C111.269 21.2957 111.78 21.2713 112.186 21.2226C112.608 21.1577 112.933 21.0928 113.16 21.0278V13.0174ZM113.16 4.49565L115.424 4.10609V22.6348C114.905 22.7809 114.239 22.927 113.428 23.073C112.616 23.2191 111.683 23.2922 110.628 23.2922C109.654 23.2922 108.777 23.138 107.998 22.8296C107.219 22.5212 106.554 22.0829 106.002 21.5148C105.45 20.9467 105.02 20.2568 104.711 19.4452C104.419 18.6174 104.273 17.6922 104.273 16.6696C104.273 15.6957 104.395 14.8029 104.638 13.9913C104.898 13.1797 105.271 12.4817 105.758 11.8974C106.245 11.313 106.838 10.8586 107.536 10.5339C108.25 10.2093 109.061 10.047 109.97 10.047C110.701 10.047 111.342 10.1443 111.894 10.3391C112.462 10.5339 112.884 10.7206 113.16 10.8991V4.49565ZM128.471 21.7339C128.277 21.8638 127.895 22.0342 127.327 22.2452C126.775 22.44 126.126 22.5374 125.379 22.5374C124.616 22.5374 123.894 22.4157 123.212 22.1722C122.547 21.9287 121.962 21.5554 121.459 21.0522C120.956 20.5328 120.558 19.8916 120.266 19.1287C119.974 18.3658 119.828 17.4568 119.828 16.4017C119.828 15.4765 119.966 14.6325 120.242 13.8696C120.518 13.0904 120.916 12.4249 121.435 11.873C121.971 11.3049 122.62 10.8667 123.383 10.5583C124.146 10.2336 125.006 10.0713 125.964 10.0713C127.019 10.0713 127.936 10.1525 128.715 10.3148C129.51 10.4609 130.176 10.5988 130.711 10.7287V22.0261C130.711 23.9739 130.208 25.3861 129.202 26.2626C128.196 27.1391 126.67 27.5774 124.625 27.5774C123.829 27.5774 123.074 27.5125 122.36 27.3826C121.662 27.2528 121.054 27.0986 120.534 26.92L120.948 24.9478C121.402 25.1264 121.954 25.2806 122.604 25.4104C123.269 25.5565 123.959 25.6296 124.673 25.6296C126.02 25.6296 126.986 25.3617 127.571 24.8261C128.171 24.2904 128.471 23.4383 128.471 22.2696V21.7339ZM128.447 12.3357C128.22 12.2707 127.911 12.2139 127.522 12.1652C127.149 12.1003 126.637 12.0678 125.988 12.0678C124.771 12.0678 123.829 12.4655 123.164 13.2609C122.514 14.0562 122.19 15.1113 122.19 16.4261C122.19 17.1565 122.279 17.7814 122.458 18.3009C122.652 18.8203 122.904 19.2504 123.212 19.5913C123.537 19.9322 123.902 20.1838 124.308 20.3461C124.73 20.5084 125.16 20.5896 125.598 20.5896C126.199 20.5896 126.751 20.5084 127.254 20.3461C127.757 20.1675 128.155 19.9646 128.447 19.7374V12.3357ZM138.774 21.3687C139.699 21.3687 140.381 21.247 140.819 21.0035C141.273 20.76 141.501 20.3704 141.501 19.8348C141.501 19.2829 141.281 18.8446 140.843 18.52C140.405 18.1954 139.683 17.8301 138.676 17.4243C138.189 17.2296 137.719 17.0348 137.264 16.84C136.826 16.629 136.444 16.3855 136.12 16.1096C135.795 15.8336 135.535 15.5009 135.341 15.1113C135.146 14.7217 135.048 14.2429 135.048 13.6748C135.048 12.5548 135.462 11.6701 136.29 11.0209C137.118 10.3554 138.246 10.0226 139.675 10.0226C140.032 10.0226 140.389 10.047 140.746 10.0957C141.103 10.1281 141.436 10.1768 141.744 10.2417C142.052 10.2904 142.32 10.3472 142.548 10.4122C142.791 10.4771 142.978 10.5339 143.108 10.5826L142.694 12.5304C142.45 12.4006 142.069 12.2707 141.549 12.1409C141.03 11.9948 140.405 11.9217 139.675 11.9217C139.041 11.9217 138.49 12.0516 138.019 12.3113C137.548 12.5548 137.313 12.9443 137.313 13.48C137.313 13.7559 137.361 13.9994 137.459 14.2104C137.572 14.4214 137.735 14.6162 137.946 14.7948C138.173 14.9571 138.449 15.1113 138.774 15.2574C139.098 15.4035 139.488 15.5577 139.942 15.72C140.543 15.9472 141.079 16.1745 141.549 16.4017C142.02 16.6128 142.418 16.8643 142.742 17.1565C143.083 17.4487 143.343 17.8058 143.521 18.2278C143.7 18.6336 143.789 19.1368 143.789 19.7374C143.789 20.9061 143.351 21.7907 142.475 22.3913C141.614 22.9919 140.381 23.2922 138.774 23.2922C137.654 23.2922 136.777 23.1948 136.144 23C135.511 22.8214 135.081 22.6835 134.854 22.5861L135.268 20.6383C135.527 20.7357 135.941 20.8817 136.509 21.0765C137.077 21.2713 137.832 21.3687 138.774 21.3687Z" fill="#00F2D5"/>
<path d="M147.816 27.5043H145.503L153.757 3.93565H156.021L147.816 27.5043ZM157.939 12.1652L158.572 10.2904L169.091 14.7461V16.6939L158.572 21.1496L157.939 19.2748L166.583 15.72L157.939 12.1652Z" fill="white"/>
<path d="M3.79826 15.72L12.4417 19.2748L11.8087 21.1496L1.29043 16.6939V14.7461L11.8087 10.2904L12.4417 12.1652L3.79826 15.72Z" fill="white"/>
</svg>
